# xmcd
#
# Track frame offsets:
#	150
#	13714
#	25641
#	36463
#	47325
#	62587
#	75102
#	86831
#	97473
#	107358
#	123527
#	138852
#	152396
#	170948
#
# Disc length: 2422 seconds
#
# Revision: 0
# Processed by: cddbd v1.4PL0 Copyright (c) Steve Scherf et al.
# Submitted via: dBpowerAMP V4.0
#
DISCID=a909740e
DTITLE=Kenny Rogers - 28 Country Favourites
DYEAR=1900
DGENRE=Country
TTITLE0=Shine On Ruby Mountain
TTITLE1=Elvira
TTITLE2=Last Few Threats Of Love
TTITLE3=Goodtime Liberator
TTITLE4=Just Dropped In ( To See What Condition My Condition Was In)
TTITLE5=Shadow In The Corner Of Your Mind
TTITLE6=Girl Get A Hold Of Youself
TTITLE7=Ticket To Nowhere
TTITLE8=Once Again She's All Alone
TTITLE9=The Way It Used To Be
TTITLE10=For The Good Times
TTITLE11=Sleep Comes Easy
TTITLE12=The King Of Oak Street
TTITLE13=She Even Woke Me Up To Say Goodbye
EXTD=
EXTT0=
EXTT1=
EXTT2=
EXTT3=
EXTT4=
EXTT5=
EXTT6=
EXTT7=
EXTT8=
EXTT9=
EXTT10=
EXTT11=
EXTT12=
EXTT13=
PLAYORDER=
